<?xml version="1.0" encoding="utf-8"?>
<!-- Generator: Adobe Illustrator 18.1.1, SVG Export Plug-In . SVG Version: 6.00 Build 0)  -->
<svg version="1.1" id="Layer_1" xmlns="http://www.w3.org/2000/svg" xmlns:xlink="http://www.w3.org/1999/xlink" x="0px" y="0px"
	 viewBox="0 0 260.4 52.7" enable-background="new 0 0 260.4 52.7" xml:space="preserve">
<g>
	<g>
		<path fill="#FFFFFF" d="M18.3,18.6c0,0,10.8,8.2,14.1,11c2.6,2.4,7.3,7.4,4.7,12.2c-0.8,1.1-5.3,6.3-12.1,3.5
			c-2.3-1-8.7-5.5-9.5-12c-0.2-2.6-1.1-8.6,5.6-13.7c-0.7-0.4-0.7-0.4-0.7-0.4s-5.4,3.7-6.8,6.3c-1.1,1.5-4,6.6-0.9,13.6
			c0.9,1.5,4.6,9.1,14.8,8.3c1.9-0.4,9.6-1.6,12.8-10.4c0.8-2.6,2.8-7.4-1.9-12.6c-2.5-2-10-8.5-15.9-12.9c-0.7-0.5-5.5-5-2.7-8.2
			c1.1-1.2,5.4-5.1,11.1-0.4c1.5,1.3,9.8,8.8,1.5,17.4c0.2,0.5,0.5,0.7,0.5,0.7s6.4-5,5.5-11.4c-0.4-2.1-2.3-8.2-8.5-9.4
			C27.8,0.1,21.7-1.5,17.1,6C16.3,7.5,13.1,14.2,18.3,18.6z"/>
		<g>
			<path fill="#FFFFFF" d="M49.9,46.4c-0.1,0-0.1,0-0.2-0.1c-0.1-0.1-0.1-0.2,0-0.3c4.6-3.9,6.9-8.3,7-13.1c0.1-6.7-4-12.3-6.2-14.3
				c-15.3-11.9-30,1.3-30.1,1.4c-0.1,0.1-0.2,0.1-0.3,0c-0.1-0.1-0.1-0.2,0-0.3c0.1-0.1,15.1-13.6,30.7-1.4
				c2.3,2.1,6.5,7.8,6.4,14.6c-0.1,5-2.5,9.5-7.1,13.5C50,46.4,50,46.4,49.9,46.4z"/>
		</g>
		<g>
			<path fill="#FFFFFF" d="M18.1,26.7c-3.1,0-5.5-0.6-6.3-0.9c-5.2-1.9-8.7-5.1-10.5-9.2c-3.2-7.5,0.4-16,0.5-16
				c0-0.1,0.2-0.2,0.3-0.1c0.1,0,0.2,0.2,0.1,0.3c0,0.1-3.6,8.4-0.5,15.7c1.7,4.1,5.2,7.1,10.2,9c2,0.6,12.5,3.4,21.4-5.6
				c0.1-0.1,0.2-0.1,0.3,0c0.1,0.1,0.1,0.2,0,0.3C28.3,25.5,22.5,26.7,18.1,26.7z"/>
		</g>
	</g>
	<g>
		<path fill="#FFFFFF" d="M68.1,23.5h17.1v2H68.1V37h18.5v2.2H65.9V10h20.2v2.1H68.1V23.5z"/>
		<path fill="#FFFFFF" d="M93.9,11.9c0,2.2-3.3,2.2-3.3,0C90.6,9.7,93.9,9.7,93.9,11.9z M91.2,18.5v20.7h2V18.5H91.2z"/>
		<path fill="#FFFFFF" d="M115.6,17.8l1.3,1.2l-2,2.3c1.5,1.6,2.5,3.7,2.5,7c0,3.6-2.1,7.2-5.6,8.8c3.6,1.3,5.6,3.8,5.6,7.4
			c0,5.6-4.3,8.2-9.8,8.2c-5.5,0-9.8-3-9.8-8.2h2c0,4.2,3.6,6.2,7.7,6.2c4.1,0,7.8-1.8,7.8-6.2c0-4.4-4-6.2-7.8-6.2
			c-6,0-9.7-4.5-9.7-10c0-6.4,4.3-10.1,9.7-10.1c2.1,0,4.3,0.8,5.8,1.9L115.6,17.8z M100.2,28.3c0,4.3,2.9,7.9,7.6,7.9
			c4.3,0,7.7-3.7,7.7-7.9c0-5.2-3.5-8-7.7-8C103.6,20.3,100.2,22.9,100.2,28.3z"/>
		<path fill="#FFFFFF" d="M124.1,10v12.4c1.7-3,4.5-4.1,7.4-4.1c5.8,0,8.6,3.7,8.6,9.1v11.8h-2V27.4c0-4.3-2-7.1-6.6-7.1
			c-4.3,0-7.3,3.3-7.3,7.6v11.3h-2V10H124.1z"/>
		<path fill="#FFFFFF" d="M150.2,12.4v6.2h7v1.7h-7v12.6c0,2.8,0.6,4.8,3.8,4.8c1,0,2.1-0.3,3.2-0.8l0.7,1.7c-1.3,0.6-2.6,1-3.9,1
			c-4.4,0-5.8-2.6-5.8-6.6V20.3h-4.4v-1.7h4.4v-6L150.2,12.4z"/>
		<path fill="#FFFFFF" d="M191.9,10h1.2l8.9,26.7l9.1-26.7h2.4l-10.3,29.3h-2.4l-4.6-13.7L192.5,14l-3.7,11.5l-4.7,13.8h-2.4
			L171.5,10h2.4l9,26.7L191.9,10z"/>
		<path fill="#FFFFFF" d="M219.3,11.9c0,2.2-3.3,2.2-3.3,0C216,9.7,219.3,9.7,219.3,11.9z M216.6,18.5v20.7h2V18.5H216.6z"/>
		<path fill="#FFFFFF" d="M226.4,18.6l0.1,3.7c1.3-2.8,4.2-3.9,6.8-3.9c1.5,0,3,0.4,4.4,1.2l-0.9,1.7c-1.1-0.7-2.3-1-3.5-1
			c-3.8,0-6.8,3.1-6.8,6.9v12h-2V18.6H226.4z"/>
		<path fill="#FFFFFF" d="M239.7,28.9c0-6.2,4.7-10.6,10.5-10.6c5.8,0,11,3.6,10.2,11.6h-18.6c0.4,4.8,4.1,7.6,8.4,7.6
			c2.7,0,5.9-1.1,7.4-3.1l1.5,1.2c-2,2.6-5.6,4-8.9,4C244.4,39.5,239.7,35.5,239.7,28.9z M258.5,28.1c0-5.1-3.4-7.9-8.4-7.9
			c-4.2,0-7.9,2.9-8.4,7.9H258.5z"/>
	</g>
</g>
</svg>
